<?xml version="1.0" encoding="UTF-8" standalone="no"?><!DOCTYPE svg PUBLIC "-//W3C//DTD SVG 1.1//EN" "http://www.w3.org/Graphics/SVG/1.1/DTD/svg11.dtd"><svg width="100%" height="100%" viewBox="0 0 591 591" version="1.1" xmlns="http://www.w3.org/2000/svg" xmlns:xlink="http://www.w3.org/1999/xlink" xml:space="preserve" xmlns:serif="http://www.serif.com/" style="fill-rule:evenodd;clip-rule:evenodd;stroke-linejoin:round;stroke-miterlimit:2;"><path d="M294.445,21.273c152.75,0 276.764,124.014 276.764,276.763c0,152.75 -124.014,276.764 -276.764,276.764c-152.749,0 -276.763,-124.014 -276.763,-276.764c0,-152.749 124.014,-276.763 276.763,-276.763Zm0,59.91c119.685,0 216.854,97.169 216.854,216.853c0,119.685 -97.169,216.854 -216.854,216.854c-119.684,0 -216.853,-97.169 -216.853,-216.854c0,-119.684 97.169,-216.853 216.853,-216.853Z"/><g><path d="M111.01,370.47l99.179,0l-33.25,-64.555l-74.84,41.728l8.911,22.827Z"/><path d="M191.274,272.45l73.58,-42.87l80.496,140.054l-97.76,0l-56.316,-97.184Z"/><path d="M485.24,371.24l-101.067,0l-103.031,-175.525l73.251,-46.95l130.847,222.475Z"/></g></svg>